<?xml version="1.0" encoding="UTF-8" standalone="no"?>
<!-- Created with Inkscape (http://www.inkscape.org/) -->

<svg
   xmlns:dc="http://purl.org/dc/elements/1.1/"
   xmlns:cc="http://creativecommons.org/ns#"
   xmlns:rdf="http://www.w3.org/1999/02/22-rdf-syntax-ns#"
   xmlns:svg="http://www.w3.org/2000/svg"
   xmlns="http://www.w3.org/2000/svg"
   xmlns:sodipodi="http://sodipodi.sourceforge.net/DTD/sodipodi-0.dtd"
   xmlns:inkscape="http://www.inkscape.org/namespaces/inkscape"
   width="95.214767mm"
   height="94.947487mm"
   viewBox="0 0 95.214767 94.947487"
   version="1.1"
   id="svg8"
   inkscape:version="0.92.3 (2405546, 2018-03-11)"
   sodipodi:docname="mycete.svg">
  <defs
     id="defs2" />
  <sodipodi:namedview
     id="base"
     pagecolor="#ffffff"
     bordercolor="#666666"
     borderopacity="1.0"
     inkscape:pageopacity="0.0"
     inkscape:pageshadow="2"
     inkscape:zoom="0.70000001"
     inkscape:cx="-43.860041"
     inkscape:cy="448.59076"
     inkscape:document-units="mm"
     inkscape:current-layer="layer1"
     showgrid="false"
     inkscape:window-width="2560"
     inkscape:window-height="1378"
     inkscape:window-x="0"
     inkscape:window-y="238"
     inkscape:window-maximized="1"
     fit-margin-top="0"
     fit-margin-left="0"
     fit-margin-right="0"
     fit-margin-bottom="0" />
  <metadata
     id="metadata5">
    <rdf:RDF>
      <cc:Work
         rdf:about="">
        <dc:format>image/svg+xml</dc:format>
        <dc:type
           rdf:resource="http://purl.org/dc/dcmitype/StillImage" />
        <dc:title></dc:title>
      </cc:Work>
    </rdf:RDF>
  </metadata>
  <g
     inkscape:label="Layer 1"
     inkscape:groupmode="layer"
     id="layer1"
     transform="translate(-29.332832,-96.815121)">
    <ellipse
       style="fill:#000000;stroke-width:0.2868444"
       id="path183"
       cx="76.940216"
       cy="144.28886"
       rx="47.607384"
       ry="47.473743"
       inkscape:export-xdpi="107.16573"
       inkscape:export-ydpi="107.16573" />
    <path
       style="fill:#ffffff;stroke-width:0.06681738"
       d="m 67.507726,168.8699 c 0.08674,-0.15619 0.336603,-0.68989 0.55525,-1.18601 1.17584,-2.66805 1.855306,-5.5194 2.221155,-9.32103 0.114716,-1.19202 0.158512,-5.5313 0.06778,-6.71514 -0.421397,-5.49809 -2.077519,-9.58659 -5.148265,-12.7096 l -0.769596,-0.78269 -1.302938,-0.0791 c -1.37359,-0.0834 -3.601114,-0.048 -4.777444,0.0759 -2.863982,0.30182 -5.667404,0.99101 -8.27333,2.0339 -0.250632,0.10031 -0.469252,0.16882 -0.485823,0.15225 -0.05426,-0.0543 0.374923,-2.80247 0.573524,-3.67252 0.8093,-3.54547 2.368069,-6.37629 4.905891,-8.90941 1.775973,-1.77269 3.603469,-3.05808 6.219703,-4.37469 2.825515,-1.42194 5.981705,-2.49076 9.780328,-3.31205 2.170997,-0.46938 6.029886,-0.728 9.277837,-0.62179 1.699408,0.0556 2.479932,0.12045 4.027239,0.33474 8.245416,1.14191 14.711312,4.97362 19.399713,11.49632 0.28153,0.39168 0.51187,0.72545 0.51187,0.74172 0,0.0163 -0.56377,0.05 -1.25283,0.075 -7.364241,0.26671 -11.885079,0.95123 -15.969999,2.4181 -1.939557,0.69649 -3.959545,2.22155 -4.863484,3.67186 -1.393507,2.23579 -1.979393,5.75732 -2.235866,13.4389 -0.150794,4.51637 0.330583,7.95434 1.577795,11.26851 0.654986,1.74048 1.851747,3.971 2.934922,5.47009 l 0.498938,0.69053 -0.951997,0.0417 c -0.5236,0.0229 -4.490368,0.0455 -8.815044,0.0501 l -7.863043,0.008 z"
       id="path170"
       inkscape:connector-curvature="0"
       inkscape:export-xdpi="107.16573"
       inkscape:export-ydpi="107.16573" />
  </g>
</svg>
